<?xml-stylesheet type="text/css" href="estilo2.css"?>
<svg id="Camada_1" data-name="Camada 1" xmlns="http://www.w3.org/2000/svg" viewBox="0 0 244.64 528.21"><defs><style>.cls-1{fill:#fff;}</style></defs><path d="M-148.85,49.23h28c.48,1.21,1,2.23,1.31,3.3a8.06,8.06,0,0,1,.41,2.23c.07,2.52.05,5,.08,7.55a6,6,0,0,0,2,4.13,6.46,6.46,0,0,0,4.54,2.24,10,10,0,0,1,7.64,4.4,15,15,0,0,1,3.34,8.58c.06,2,1.2,3.28,2.53,4.58A6.33,6.33,0,0,0-94,88.05c2.79-.13,5.59,0,8.39,0a10.84,10.84,0,0,1,9.68,5.4,18,18,0,0,0,6.07,6.17,4.89,4.89,0,0,0,2.21.69c4,.08,8,.08,12,.08a11.68,11.68,0,0,1,10.58,6,16.68,16.68,0,0,1,2.44,9.12c0,6.44.08,12.88-.06,19.31a22.72,22.72,0,0,1-1.14,4.83,8.22,8.22,0,0,0-.44,2,32.76,32.76,0,0,0,1,8.72,19.42,19.42,0,0,1-.5,12.7c-.61,1.51-1.66,2.83-2.36,4.3a4.8,4.8,0,0,0-.27,2.15,11.77,11.77,0,0,0,.35,3.09,25.36,25.36,0,0,0,1.74,4.29,15.86,15.86,0,0,1,1.71,8.24,31.46,31.46,0,0,1-.56,4.73c-.57,2.83-2.59,4.81-4.32,6.94-.4.5-.84,1-1.19,1.5-1.3,2-2.46,4-3.89,5.88a7.49,7.49,0,0,0-1.31,4.25c0,.44,0,.88,0,1.32q0,131.51,0,263a22.18,22.18,0,0,0,.28,3.82,4.41,4.41,0,0,0,1,2c1.6,1.85,3.39,3.39,6.13,2.9a6.76,6.76,0,0,1,1.19,0c2.09,0,1.93-.09,2,1.85a1.35,1.35,0,0,0,.1.7c1.22,1.74,1,3.73,1,5.68,0,16.8,0,33.6,0,50.4A10.84,10.84,0,0,1-53,551.31c-3.31.05-6.62.2-9.93.2q-103.59,0-207.17,0a25.71,25.71,0,0,1-7.2-1c-5-1.47-7.7-5.17-8.63-10.21a16.52,16.52,0,0,1-.27-3c0-16.44,0-32.88,0-49.32a18.26,18.26,0,0,1,1-4.1,6.52,6.52,0,0,0,.29-1.5c0-.72.34-1,1-1s1.36,0,2,0a6.67,6.67,0,0,0,6.34-6.32c0-.76,0-1.52,0-2.28q0-130.74.07-261.47a15.34,15.34,0,0,0-3.39-10.28c-1.83-2.25-3.51-4.62-5.2-7a15.83,15.83,0,0,1-2.66-11.28,19.75,19.75,0,0,1,2.26-6.89c.85-1.69.95-3.75,1.48-5.62a4.83,4.83,0,0,0-1.16-4.53,12.43,12.43,0,0,1-2.59-7.21,33.53,33.53,0,0,1,1-10.67,15,15,0,0,0-.26-8.94,13.38,13.38,0,0,1-.8-4.34c-.08-6.91-.16-13.84,0-20.75a14.07,14.07,0,0,1,6.8-12,10.26,10.26,0,0,1,5.6-1.49c2.79,0,5.6-.15,8.39,0,3.1.18,5-1.47,6.28-3.92s2.12-5.17,3.2-7.75c2.1-5,4-10.22,6.39-15.11C-239.2,52-222.45,37.16-199.36,29.71a112.45,112.45,0,0,1,23.2-5c5.48-.56,11-.92,16.46-1.21a184.7,184.7,0,0,1,27,.94c2.62.25,5.25.47,7.86.8a2.42,2.42,0,0,1,1.55.87q2.61,4,5,8.14a2.77,2.77,0,0,1-2.45,4.15c-2.15,0-4.29-.34-6.43-.54-5.44-.53-10.88-1.13-16.32-1.58-3.9-.32-7.81-.55-11.71-.6a86.34,86.34,0,0,0-9.92.42c-5.6.58-11.2,1.18-16.74,2.15A85,85,0,0,0-207.2,47a68.38,68.38,0,0,0-21.07,16.93,105.59,105.59,0,0,0-7.08,10.39c-1.56,2.45-2.91,5.05-4.26,7.63-.87,1.67-.62,2.65.73,4l.26.24c2.12,1.8,2.36,1.83,4.71.36a5.85,5.85,0,0,0,3-5c0-1.71.16-3.43.37-5.13a4.73,4.73,0,0,1,2.6-3.67A13.13,13.13,0,0,0-226,71.34a11.52,11.52,0,0,1,7.58-2.77q30.69,0,61.39,0a6.92,6.92,0,0,0,6.56-6c.17-2.35.07-4.71.26-7.06a28.67,28.67,0,0,1,.88-3.78C-149.15,50.92-149,50.1-148.85,49.23Zm87.56,432.3V475q0-133.44,0-266.88,0-4.32-.07-8.64c0-2.59.34-2.4-2.37-2.4H-265.52c-.36,0-.72,0-1.08,0-1-.09-1.35.29-1.35,1.29,0,3.24-.11,6.48-.11,9.72q0,133.44,0,266.88c0,1.64,0,3.28.05,4.92s0,1.66,1.74,1.66h205Zm-217.41,6v48.27c0,4.05,1.91,6,5.92,6H-53.41c3,0,4-1,4-4V489.16c0-1.62,0-1.62-1.6-1.62H-278.7Zm-.64-356.62H-50v-1.36c0-5.76-.12-11.52,0-17.27a5.49,5.49,0,0,0-5.87-5.83q-108.79.09-217.59,0c-3.44,0-6,2.13-5.91,5.93.11,5.72,0,11.44,0,17.16ZM-164.7,147h-110c-2.95,0-4.54,1.53-4.59,4.47,0,1.68-.06,3.36,0,5a4,4,0,0,0,3.77,3.94,13.88,13.88,0,0,0,1.44.07H-55.33a13.33,13.33,0,0,0,1.79-.1,4,4,0,0,0,3.48-3.95c0-1.52,0-3,0-4.56,0-3.45-1.44-4.91-4.85-4.91Zm.17,29H-273.85a5,5,0,0,0-5.38,5.4c0,1.08,0,2.16,0,3.24a5,5,0,0,0,4.53,4.76c.68.06,1.36.09,2,.09H-56.53c.68,0,1.36,0,2-.09A4.85,4.85,0,0,0-50,185.09a28.77,28.77,0,0,0,.09-3.35c0-3.81-1.95-5.77-5.74-5.77ZM-109,88c0-3,.12-5.9,0-8.76s-2.28-4.57-5.16-4.57h-104a4.91,4.91,0,0,0-5.24,5.14c0,2.35,0,4.71.05,7.07,0,.38.07.76.11,1.12Zm-55,12.49h81.64c.32,0,.65,0,1,0,.63.05.81-.24.86-.84a5,5,0,0,0-5.21-5.54q-78.52,0-157.06,0c-4.29,0-5,1.52-4.74,4.83.11,1.6,0,1.6,1.67,1.6Zm37.36-45.17h-16.12V68.55h16.12Z" transform="translate(286.73 -23.31)"/><path class="cls-1" d="M-61.29,481.53h-205c-1.71,0-1.72,0-1.74-1.66s-.05-3.28-.05-4.92q0-133.44,0-266.88c0-3.24.11-6.48.11-9.72,0-1,.39-1.38,1.35-1.29.36,0,.72,0,1.08,0H-63.74c2.71,0,2.33-.19,2.37,2.4q.07,4.32.07,8.64,0,133.44,0,266.88Z" transform="translate(286.73 -23.31)"/><path class="cls-1" d="M-278.7,487.54H-51c1.6,0,1.6,0,1.6,1.62v48.59c0,3-1,4-4,4H-272.78c-4,0-5.92-1.93-5.92-6V487.54Z" transform="translate(286.73 -23.31)"/><path class="cls-1" d="M-279.34,130.92v-1.37c0-5.72.08-11.44,0-17.16-.07-3.8,2.47-5.93,5.91-5.93q108.79.09,217.59,0A5.49,5.49,0,0,1-50,112.29c-.17,5.75,0,11.51,0,17.27v1.36Z" transform="translate(286.73 -23.31)"/><path class="cls-1" d="M-164.7,147H-54.9c3.41,0,4.85,1.46,4.85,4.91,0,1.52,0,3,0,4.56a4,4,0,0,1-3.48,3.95,13.33,13.33,0,0,1-1.79.1H-274.09a13.88,13.88,0,0,1-1.44-.07,4,4,0,0,1-3.77-3.94c-.09-1.67-.06-3.35,0-5,.05-2.94,1.64-4.47,4.59-4.47Z" transform="translate(286.73 -23.31)"/><path class="cls-1" d="M-164.53,176H-55.69c3.79,0,5.75,2,5.74,5.77a28.77,28.77,0,0,1-.09,3.35,4.85,4.85,0,0,1-4.46,4.29c-.67.06-1.35.09-2,.09H-272.66c-.67,0-1.35,0-2-.09a5,5,0,0,1-4.53-4.76c0-1.08,0-2.16,0-3.24a5,5,0,0,1,5.38-5.4h109.32Z" transform="translate(286.73 -23.31)"/><path class="cls-1" d="M-109,88H-223.3c0-.36-.1-.74-.11-1.12,0-2.36-.07-4.72-.05-7.07a4.91,4.91,0,0,1,5.24-5.14h104.05c2.88,0,5,1.76,5.16,4.57S-109,85-109,88Z" transform="translate(286.73 -23.31)"/><path class="cls-1" d="M-164,100.49h-81.88c-1.63,0-1.56,0-1.67-1.6-.24-3.31.45-4.83,4.74-4.83q78.52.1,157.06,0a5,5,0,0,1,5.21,5.54c0,.6-.23.89-.86.84-.31,0-.64,0-1,0Z" transform="translate(286.73 -23.31)"/><path class="cls-1" d="M-126.64,55.32V68.55h-16.12V55.32Z" transform="translate(286.73 -23.31)"/></svg>