<?xml-stylesheet type="text/css" href="estilo2.css"?>
<svg id="Camada_1" data-name="Camada 1" xmlns="http://www.w3.org/2000/svg" viewBox="0 0 337.64 532.31"><defs><style>.cls-1{fill:#fff;}</style></defs><g id="Camada_2" data-name="Camada 2"><g id="Camada_1-2" data-name="Camada 1-2"><path d="M170.14,532.26H17a15.64,15.64,0,0,1-11.79-4.69,15,15,0,0,1-4-9.65c-.19-2.53-.05-5.09-.05-7.64V468a36.32,36.32,0,0,1,.28-4.66,6.28,6.28,0,0,1,3.24-4.65c1.08-.62,2.55-.54,3.84-.78a8.38,8.38,0,0,0,6.34-5,13.24,13.24,0,0,0,.66-3.74,8.66,8.66,0,0,0,0-1.44V191.26c0-4-1.06-7.38-4.12-10C9.72,179.8,8,178.32,6.28,177c-3.9-3-5.61-7.15-5.91-12-.27-4.26.83-8.28,2-12.33a13.46,13.46,0,0,0-.57-9A22.28,22.28,0,0,1,.33,131.68a42.71,42.71,0,0,0,.25-11.46c-.43-3.5-.29-7.08-.37-10.62-.09-4.52-.32-9-.15-13.55.14-4,.14-8,2.41-11.7A14.07,14.07,0,0,1,13.7,77.29c5.33-.41,10.7-.47,16.05-.51a10.73,10.73,0,0,0,10.43-6.44c3-6.11,6.11-12.23,9.54-18.12a80.28,80.28,0,0,1,7.43-10.15A88.32,88.32,0,0,1,74.87,25.86,106,106,0,0,1,91.7,16.2a160.73,160.73,0,0,1,23.22-8.37,166.93,166.93,0,0,1,27.49-5.44c7.33-.82,14.69-1.6,22.06-1.91C174.29.06,184.13-.07,194,0c6.85.07,13.71.7,20.56,1.11,2,.12,4.06.31,6.09.47a12.67,12.67,0,0,1,9.06,5,60.31,60.31,0,0,1,3.78,4.94,8.3,8.3,0,0,1,1.18,3.22c.35,2.51-.9,4.25-3.51,4.7a22.35,22.35,0,0,1-5.6.24c-5-.43-10-1.17-15-1.54-7.16-.53-14.34-.9-21.51-1.21-4.47-.2-9-.35-13.42-.21-12.78.4-25.55,1.14-38.13,3.62-13.66,2.7-27,6.56-39.34,13.15a38.54,38.54,0,0,0-9.31,6.27A3,3,0,0,0,88,43.09a2.63,2.63,0,0,0,2.55,1.69c1.7.15,3.42.28,5.12.28H179a8.06,8.06,0,0,0,6-2.44,7.54,7.54,0,0,0,2.24-5.26c.07-2,.13-4,.25-6a6.37,6.37,0,0,1,3.47-5.16c1.21-.68,2.94-.56,4.45-.59,3.68-.08,7.36,0,11,0,4.86-.08,9.72-.25,14.59-.35,1.43,0,2.86,0,4.28.12,4.48.38,6.37,3.34,6.54,7.17.08,1.68,0,3.36.22,5,.52,4.66,3.07,7,7.81,7.51a28.84,28.84,0,0,1,6.11,1.12c5.5,1.83,8.57,5.9,9.76,11.47a9,9,0,0,0,9,6.87c4.79-.16,9.59-.09,14.39,0a16.2,16.2,0,0,1,11.85,4.89c1.31,1.36,2.62,2.7,4,4a11.46,11.46,0,0,0,8.1,3.31c4.32,0,8.64-.12,13,0a65.85,65.85,0,0,1,9.51.92,14.12,14.12,0,0,1,11,12.33c.21,2.47.28,5,.26,7.42,0,7.72-.14,15.44-.26,23.15,0,1.27-.44,2.54-.41,3.81.05,2.06.29,4.13.49,6.19a26.89,26.89,0,0,1-1.43,13c-1.54,3.86-1.06,7.68.27,11.55,2.13,6.22,2.24,12.4-1.17,18.29-1.29,2.24-3.52,3.53-5.48,5.09a59.33,59.33,0,0,0-5,4.51c-1.92,1.9-2.3,4.4-2.39,7V448.13a13.62,13.62,0,0,0,.62,4.7,7.67,7.67,0,0,0,7.08,5.07c1.5.12,3,.39,4.5.63s3.33,2.48,3.56,4.45a68.3,68.3,0,0,1,.5,7.28q.06,22.8,0,45.6a23.11,23.11,0,0,1-1.22,8.49c-1.79,4.5-5.21,6.83-9.81,7.66a20.31,20.31,0,0,1-3.57.28Zm-1.66-73.75H308.15a6.49,6.49,0,0,1,1.08,0c1.12.16,1.55-.24,1.53-1.42-.05-2.84.05-5.68.05-8.52v-257c0-3.92,0-7.84-.1-11.76,0-2.35.29-2.25-2.3-2.25H27.87c-1.62,0-1.63,0-1.64,1.58,0,3.72-.07,7.43-.07,11.15V456.74c0,1.73,0,1.73,1.78,1.73Zm158.58,7.16H13.25c-1.63,0-1.63,0-1.63,1.64v46.08c0,3.18,1.86,5.46,5.43,5.46q153.24-.09,306.47-.05h1.2a2.37,2.37,0,0,0,2.32-2,6,6,0,0,0,.06-1.2V466.88ZM10.85,107.88H326.12c0-6.53.05-13,0-19.4a3.63,3.63,0,0,0-2.4-3.33,8.3,8.3,0,0,0-3-.5h-305c-3,0-4.83,1.84-4.83,4.89V106.7A7.74,7.74,0,0,0,10.85,107.88Zm157.73,58.6h153.2a4.31,4.31,0,0,0,4.38-3.68,19.92,19.92,0,0,0,0-5c-.34-2.46-2.26-3.7-5.22-3.7H15.46a4.52,4.52,0,0,0-4.55,4.47c0,.84.05,1.68,0,2.52-.28,3.4,2.07,5.45,5.42,5.44Q92.44,166.43,168.58,166.48Zm-.06-29h154.3a3.39,3.39,0,0,0,3.34-3.41v-5.52a3.36,3.36,0,0,0-3.22-3.38H14.09a3.41,3.41,0,0,0-3.28,3.46V134a3.43,3.43,0,0,0,3.28,3.46H168.52ZM166.3,65h77.26c1.76,0,1.79,0,1.82-1.81s0-3.44.05-5.16c0-3.58-1.68-5.26-5.28-5.26H91.75a4.4,4.4,0,0,0-4.38,4.42v5.92c0,2,0,1.9,1.88,1.9Zm3.11,12.4h113.4c1.54,0,1.75-.27,1.4-1.75-.53-2.24-2.25-3.44-4.95-3.44H57.63a8,8,0,0,0-1.2,0c-1.6.23-2.19,1.46-2.12,3.83,0,1.75,1.24,1.32,2.19,1.32Zm28.4-44V44.58c0,1,.51,1,1.21,1h21c1,0,1.22-.38,1.22-1.28,0-3.4,0-6.8,0-10.2a4.18,4.18,0,0,0-.09-.71ZM76.29,58a2.71,2.71,0,0,0-2.52-2.9h-.15c-1.92-.14-2.91,1.29-3.91,2.55a3.61,3.61,0,0,0-.35,4A2.62,2.62,0,0,0,72,63.17,6.3,6.3,0,0,0,76.29,58Z" transform="translate(0 0.02)"/><path class="cls-1" d="M169.33,465.63H28.82c-1.74,0-1.75,0-1.77-1.73V197.4c0-3.72,0-7.44.07-11.16,0-1.57,0-1.57,1.64-1.57H309.25c2.59,0,2.27-.1,2.3,2.25.05,3.92.1,7.84.1,11.76v257c0,2.84-.09,5.68,0,8.52,0,1.18-.41,1.59-1.53,1.43a6.49,6.49,0,0,0-1.08,0Z" transform="translate(0 0.02)"/><path class="cls-1" d="M327.06,465.67v49.88a6,6,0,0,1-.06,1.2,2.37,2.37,0,0,1-2.32,2h-1.2q-153.23,0-306.47,0c-3.57,0-5.45-2.28-5.43-5.46.08-15.36,0-30.72,0-46.08,0-1.63,0-1.64,1.63-1.64H327.06Z" transform="translate(0 0.02)"/><path class="cls-1" d="M10.85,107.88V89.52a4.5,4.5,0,0,1,4.83-4.89h305a8.3,8.3,0,0,1,3,.5,3.63,3.63,0,0,1,2.4,3.33c.08,6.43,0,12.87,0,19.4Z" transform="translate(0 0.02)"/><path class="cls-1" d="M168.58,166.48H16.31c-3.35,0-5.7-2-5.42-5.44.07-.84,0-1.68,0-2.52a4.52,4.52,0,0,1,4.55-4.47H321c3,0,4.88,1.24,5.22,3.7a19.92,19.92,0,0,1,0,5,4.31,4.31,0,0,1-4.38,3.68h-1.2Z" transform="translate(0 0.02)"/><path class="cls-1" d="M168.52,137.5H14.08a3.42,3.42,0,0,1-3.27-3.5v-5.4a3.41,3.41,0,0,1,3.28-3.46H322.93a3.36,3.36,0,0,1,3.22,3.38q.08,2.76,0,5.52a3.39,3.39,0,0,1-3.34,3.41h-1.44Z" transform="translate(0 0.02)"/><path class="cls-1" d="M166.3,65h-77c-1.86,0-1.86,0-1.88-1.9s0-3.92,0-5.88a4.4,4.4,0,0,1,4.34-4.46H240.2c3.6,0,5.29,1.68,5.28,5.26,0,1.72,0,3.44,0,5.16S245.32,65,243.56,65Z" transform="translate(0 0.02)"/><path class="cls-1" d="M169.41,77.41H56.5c-1,0-2.14.43-2.19-1.32-.07-2.37.52-3.6,2.12-3.83a8,8,0,0,1,1.2,0H279.26c2.7,0,4.42,1.2,4.95,3.44.35,1.48.14,1.75-1.4,1.75H169.41Z" transform="translate(0 0.02)"/><path class="cls-1" d="M197.81,33.39h23.38a4.18,4.18,0,0,1,.09.71c0,3.4-.06,6.8-.05,10.2,0,.9-.24,1.29-1.22,1.28H199c-.7,0-1.22,0-1.21-1C197.83,40.89,197.81,37.21,197.81,33.39Z" transform="translate(0 0.02)"/><path class="cls-1" d="M76.29,58c0,2-2.31,4.81-4.31,5.18a2.61,2.61,0,0,1-2.62-1.49,3.61,3.61,0,0,1,.35-4c1-1.26,2-2.69,3.91-2.55a2.72,2.72,0,0,1,2.67,2.77Z" transform="translate(0 0.02)"/></g></g></svg>