<?xml-stylesheet type="text/css" href="estilo2.css"?>
<svg id="Camada_1" data-name="Camada 1" xmlns="http://www.w3.org/2000/svg" viewBox="0 0 235.75 513.9"><defs><style>.cls-1{fill:#fff;}</style></defs><path d="M-180.56,522.15h-47.12c-3.62,0-6.82-.95-8.53-4.41a19.78,19.78,0,0,1-2-6.11c-.68-5.26-1-10.57-1.53-15.85q-.78-8.23-1.57-16.46c-.25-2.67-.58-5.33-.75-8a5.38,5.38,0,0,1,1.84-4.86c1.63-1.3,1.87-2.92,1.66-4.81-.56-5-1.08-10.08-1.63-15.13-.62-5.79-1.27-11.58-1.87-17.38-.84-8-1.64-16-2.48-24.06-.67-6.28-1.4-12.54-2.07-18.81s-1.3-12.55-2-18.82c-.69-6.55-1.42-13.1-2.12-19.65-.67-6.31-1.3-12.63-2-18.94-.61-5.76-1.26-11.51-1.87-17.27-.76-7.14-1.48-14.29-2.23-21.44s-1.58-14.36-2.33-21.55c-.85-8-1.63-16-2.48-24.06-.66-6.28-1.41-12.54-2.07-18.81-.77-7.31-1.46-14.62-2.25-21.92-.44-4.09-1-8.17-1.54-12.24a3.75,3.75,0,0,0-.82-2c-2.27-2.39-4.25-5.06-7-7a34,34,0,0,1-3.83-3,10.07,10.07,0,0,1-3.25-6.89,31.43,31.43,0,0,1,0-6,15.54,15.54,0,0,1,1.44-4.64,14.23,14.23,0,0,0,1-7.74,4,4,0,0,0-1.38-2c-1.65-1.62-3.31-3.34-3.65-5.65a66.2,66.2,0,0,1-.49-8.58c0-2.44,1-4.62,1.86-6.87a21.41,21.41,0,0,0,1.1-10.13c-.28-2.53-.18-5.1-.26-7.65,0-1.19-.16-2.39-.16-3.58,0-4-.07-7.92,0-11.88a12.75,12.75,0,0,1,12.57-12.66,29.35,29.35,0,0,1,3.11,0c3.19.25,5.15-1.93,6.25-4.54,2.73-6.47,5-13.14,7.93-19.52,8-17.45,19.93-31.41,37.18-40.43a106.54,106.54,0,0,1,32.61-10.51c17.53-2.84,35.11-2.45,52.7-.63l1.07.12c4.08.44,4.09.43,6.23,3.89,1.15,1.87,2.27,3.76,3.39,5.66.59,1,.1,3.07-1,3.47a7.34,7.34,0,0,1-3.22.53c-5.95-.63-11.87-1.64-17.83-2S-154,21-160.14,21a81.49,81.49,0,0,0-10.72.34c-5.78.72-11.54,1.65-17.23,2.88a79.8,79.8,0,0,0-23.23,9.11,64.55,64.55,0,0,0-20.82,18.45c-3.12,4.43-5.84,9.15-8.71,13.76a9.4,9.4,0,0,0-.8,1.87,3.36,3.36,0,0,0-.18,1.29,4.1,4.1,0,0,0,6.22,2.83A6.24,6.24,0,0,0-232.67,66a26.89,26.89,0,0,1,.88-5.88,3.93,3.93,0,0,1,2.49-2.74,3.91,3.91,0,0,0,1.07-.75A11.89,11.89,0,0,1-220,53.43l16.43,0c14.79,0,29.57-.07,44.36,0a6.93,6.93,0,0,0,6.47-3.9c.69-1.23.69-2.91.81-4.41s-.07-3,.06-4.55a34,34,0,0,1,.77-3.82c.07-.31.17-.61.23-.93.33-1.79.33-1.83,2.11-1.83,8.27,0,16.54,0,24.81,0,1.15,0,2.12.07,1.89,1.61A.63.63,0,0,0-122,36c1.91,3.26,1.24,6.83,1.14,10.31-.07,2.45,2.16,6.1,4.38,6.94a4.19,4.19,0,0,0,1.07.15,11.81,11.81,0,0,1,10,6.44,16.84,16.84,0,0,1,2.16,6.79c.24,2.94,2.31,4.42,4.39,5.92a2.71,2.71,0,0,0,1.5.26c3.24,0,6.48.06,9.71.08a11.31,11.31,0,0,1,10.44,6A15.89,15.89,0,0,0-72.75,84a6.23,6.23,0,0,0,3.88,1.34c2.19,0,4.4.09,6.59,0,5.21-.18,12.64,5,12.5,12-.06,3.35,0,6.7-.09,10-.05,4,0,8.07-.21,12.1a27.52,27.52,0,0,1-1.06,4.73,17.27,17.27,0,0,0-.57,2.52,21.25,21.25,0,0,0,1.17,8.23,18.9,18.9,0,0,1-.14,12.14,18.62,18.62,0,0,1-3.21,5c-1,1.24-1.72,2.32-1.5,4.06a19.9,19.9,0,0,0,1.41,6,17.18,17.18,0,0,1,0,15,11.73,11.73,0,0,1-8.33,6.3,8.22,8.22,0,0,0-4.19,2.14c-.92.94-2,1.73-3,2.6a9.07,9.07,0,0,0-2.93,5.48c-1.13,6.57-2.29,13.14-3.42,19.72-1.67,9.72-3.31,19.45-5,29.18-1.84,10.67-3.72,21.33-5.56,32-1.68,9.72-3.31,19.45-5,29.18-1.76,10.19-3.57,20.38-5.33,30.58-1.36,7.87-2.66,15.75-4,23.63-1.76,10.19-3.57,20.38-5.33,30.58s-3.46,20.4-5.22,30.59-3.55,20.39-5.33,30.58c-.67,3.86-1.24,7.74-2.06,11.56-.53,2.44,0,4.28,2.18,5.48,2,1.1,2.25,2.93,2.06,4.9s-.49,3.8-.76,5.7c-1.65,11.59-3.43,23.17-4.9,34.78a11.56,11.56,0,0,1-10.19,9.87c-1.47.13-2.95.25-4.42.25Zm-49.55-54.79h1.78q49.14,0,98.3,0c2.82,0,2.41.6,3-2.47q4.76-27.28,9.43-54.59,8.24-47.67,16.46-95.36Q-93.76,272-86.38,229q3.84-22.4,7.59-44.81c.38-2.26.33-2.27-1.94-2.27H-258.28c-2,0-2,0-1.84,2,.56,5.61,1.1,11.21,1.68,16.81q1.69,16.46,3.44,32.9,2.1,19.71,4.22,39.43c1.17,11,2.3,21.93,3.46,32.9q2.08,19.71,4.22,39.43,2,19.19,4.07,38.37t4.08,38.49q2.08,19.78,4.16,39.57C-230.6,463.62-230.35,465.43-230.11,467.36Zm-45.23-351.51H-57.19V97.17c0-3.82-2-5.8-5.86-5.8H-269.49c-3.84,0-5.85,2-5.85,5.82v18.66Zm39.15,355.51c.39,4.57.76,9,1.14,13.39.69,7.84,1.4,15.67,2,23.51.27,3.29,1.09,4.17,4.34,4.17h101.28a7.69,7.69,0,0,1,1,0c.87.09,1.25-.36,1.34-1.16.11-1,.19-2,.32-3l4.89-35.51c.06-.46.07-.92.11-1.44Zm68.49-339.5H-273.54c-3,0-4.66,1.61-4.68,4.65,0,1.52,0,3,0,4.56a3.81,3.81,0,0,0,1.79,3.58,7.22,7.22,0,0,0,3.3.78q105.42,0,210.85,0h.84a4.12,4.12,0,0,0,4.24-4.25c0-1.48,0-3,0-4.44,0-3.37-1.53-4.9-4.9-4.9Zm.17,28.95H-269.19c-.4,0-.8,0-1.2,0a4.9,4.9,0,0,0-4.83,4.18,20.66,20.66,0,0,0-.17,3.34c0,4.12,2,6.11,6.09,6.11H-65.73c.4,0,.8,0,1.2,0a5.12,5.12,0,0,0,4.93-4.68c.09-1,0-1.92.08-2.88.2-4.07-2.52-6.13-6.1-6.12Q-116.57,160.88-167.53,160.81ZM-167.95,73h3.83q26,0,51.9,0c1.13,0,1.56-.27,1.52-1.45-.06-2.24,0-4.48,0-6.71A5,5,0,0,0-116,59.6H-219.89a5,5,0,0,0-5.33,5.32c0,2.12,0,4.24.06,6.36,0,1.7,0,1.7,1.71,1.7Zm2.1,12.43h82c1.53,0,1.63-.11,1.55-1.63A5,5,0,0,0-87.6,79H-245.83c-.2,0-.4,0-.6,0a3,3,0,0,0-2.85,2.85c0,.6,0,1.2,0,1.8,0,1.72,0,1.73,1.79,1.73Zm21.35-45.17a1.33,1.33,0,0,0-.13.41c0,4,0,8,0,12,0,.88.5.92,1.16.92,4.6,0,9.19,0,13.78,0,1,0,1.3-.36,1.3-1.31,0-2.84,0-5.67.06-8.51,0-1.15,0-2.29,0-3.51Z" transform="translate(285.36 -8.26)"/><path class="cls-1" d="M-230.11,467.36c-.24-1.93-.49-3.74-.68-5.56q-2.09-19.79-4.16-39.57Q-237,403-239,383.74t-4.07-38.37q-2.1-19.71-4.22-39.43c-1.16-11-2.29-21.93-3.46-32.9q-2.08-19.71-4.22-39.43-1.74-16.46-3.44-32.9c-.58-5.6-1.12-11.2-1.68-16.81-.19-2-.19-2,1.84-2H-80.73c2.27,0,2.32,0,1.94,2.27q-3.76,22.41-7.59,44.81-7.38,43-14.81,85.9-8.22,47.69-16.46,95.36-4.71,27.3-9.43,54.59c-.54,3.07-.13,2.47-3,2.47q-49.15,0-98.3,0Z" transform="translate(285.36 -8.26)"/><path class="cls-1" d="M-275.34,115.85V97.19c0-3.83,2-5.82,5.85-5.82H-63c3.85,0,5.86,2,5.86,5.8v18.68Z" transform="translate(285.36 -8.26)"/><path class="cls-1" d="M-236.19,471.36h116.42c0,.52,0,1-.11,1.44l-4.89,35.51c-.13,1-.21,2-.32,3-.09.8-.47,1.25-1.34,1.16a7.69,7.69,0,0,0-1,0H-228.67c-3.25,0-4.07-.88-4.34-4.17-.64-7.84-1.35-15.67-2-23.51C-235.43,480.34-235.8,475.93-236.19,471.36Z" transform="translate(285.36 -8.26)"/><path class="cls-1" d="M-167.7,131.86H-62.09c3.37,0,4.9,1.53,4.9,4.9,0,1.48,0,3,0,4.44a4.12,4.12,0,0,1-4.24,4.25h-.84q-105.42,0-210.85,0a7.22,7.22,0,0,1-3.3-.78,3.81,3.81,0,0,1-1.79-3.58c0-1.52,0-3,0-4.56,0-3,1.64-4.65,4.68-4.65Z" transform="translate(285.36 -8.26)"/><path class="cls-1" d="M-167.53,160.81q51,0,101.91,0c3.58,0,6.3,2,6.1,6.12,0,1,0,1.92-.08,2.88a5.12,5.12,0,0,1-4.93,4.68c-.4,0-.8,0-1.2,0H-269.3c-4.1,0-6.1-2-6.09-6.11a20.66,20.66,0,0,1,.17-3.34,4.9,4.9,0,0,1,4.83-4.18c.4,0,.8,0,1.2,0Z" transform="translate(285.36 -8.26)"/><path class="cls-1" d="M-167.95,73h-55.5c-1.66,0-1.68,0-1.71-1.7,0-2.12-.07-4.24-.06-6.36a5,5,0,0,1,5.33-5.32H-116a5,5,0,0,1,5.3,5.24c0,2.23-.09,4.47,0,6.71,0,1.18-.39,1.45-1.52,1.45q-26,0-51.9,0Z" transform="translate(285.36 -8.26)"/><path class="cls-1" d="M-165.85,85.41h-81.63c-1.75,0-1.75,0-1.79-1.73,0-.6,0-1.2,0-1.8A3,3,0,0,1-246.43,79c.2,0,.4,0,.6,0H-87.6a5,5,0,0,1,5.29,4.74c.08,1.52,0,1.63-1.55,1.63h-82Z" transform="translate(285.36 -8.26)"/><path class="cls-1" d="M-144.5,40.24h16.22c0,1.22,0,2.36,0,3.51,0,2.84-.07,5.67-.06,8.51,0,1-.28,1.32-1.3,1.31-4.59,0-9.18,0-13.78,0-.66,0-1.16,0-1.16-.92,0-4,0-8,0-12A1.33,1.33,0,0,1-144.5,40.24Z" transform="translate(285.36 -8.26)"/></svg>